<svg xmlns="http://www.w3.org/2000/svg">
    <symbol id="align-left" viewBox="0 0 24 24">
        <line x1="17" y1="10" x2="3" y2="10"></line>
        <line x1="21" y1="6" x2="3" y2="6"></line>
        <line x1="21" y1="14" x2="3" y2="14"></line>
        <line x1="17" y1="18" x2="3" y2="18"></line>
    </symbol>
    <symbol id="credit-card" viewBox="0 0 24 24">
        <rect x="1" y="4" width="22" height="16" rx="2" ry="2"></rect>
        <line x1="1" y1="10" x2="23" y2="10"></line>
    </symbol>
    <symbol id="list" viewBox="0 0 24 24">
        <line x1="8" y1="6" x2="21" y2="6"></line>
        <line x1="8" y1="12" x2="21" y2="12"></line>
        <line x1="8" y1="18" x2="21" y2="18"></line>
        <line x1="3" y1="6" x2="3.01" y2="6"></line>
        <line x1="3" y1="12" x2="3.01" y2="12"></line>
        <line x1="3" y1="18" x2="3.01" y2="18"></line>
    </symbol>
    <symbol id="message-square" viewBox="0 0 24 24">
        <path d="M21 15a2 2 0 0 1-2 2H7l-4 4V5a2 2 0 0 1 2-2h14a2 2 0 0 1 2 2z"></path>
    </symbol>
    <symbol id="plus" viewBox="0 0 24 24">
        <line x1="12" y1="5" x2="12" y2="19"></line>
        <line x1="5" y1="12" x2="19" y2="12"></line>
    </symbol>
    <symbol id="trello" viewBox="0 0 24 24">
        <rect x="3" y="3" width="18" height="18" rx="2" ry="2"></rect>
        <rect x="7" y="7" width="3" height="9"></rect>
        <rect x="14" y="7" width="3" height="5"></rect>
    </symbol>
    <symbol id="user" viewBox="0 0 24 24">
        <path d="M20 21v-2a4 4 0 0 0-4-4H8a4 4 0 0 0-4 4v2"></path>
        <circle cx="12" cy="7" r="4"></circle>
    </symbol>
    <symbol id="x" viewBox="0 0 24 24">
        <line x1="18" y1="6" x2="6" y2="18"></line>
        <line x1="6" y1="6" x2="18" y2="18"></line>
    </symbol>
        <symbol id="card-outline" viewBox="0 0 512 512">
        <rect x="48" y="96" width="416" height="320" rx="56" ry="56" fill="none"  stroke-linecap="round" stroke-linejoin="round" stroke-width="32"/>
        <path fill="none"  stroke-linejoin="round" stroke-width="60" d="M48 192h416M128 300h48v20h-48z"/>
    </symbol>
    <symbol id="list-outline" viewBox="0 0 512 512">
        <path fill="none" stroke-linecap="round" stroke-linejoin="round" stroke-width="32" d="M160 144h288M160 256h288M160 368h288"/>
        <circle cx="80" cy="144" r="16" fill="none" stroke-linecap="round" stroke-linejoin="round" stroke-width="32"/>
        <circle cx="80" cy="256" r="16" fill="none" stroke-linecap="round" stroke-linejoin="round" stroke-width="32"/>
        <circle cx="80" cy="368" r="16" fill="none" stroke-linecap="round" stroke-linejoin="round" stroke-width="32"/>
    </symbol>
</svg>